<svg width="512" height="512" viewBox="0 0 512 512" style="color:#ffffff" xmlns="http://www.w3.org/2000/svg" class="h-full w-full"><rect width="512" height="512" x="0" y="0" rx="30" fill="transparent" stroke="transparent" stroke-width="0" stroke-opacity="100%" paint-order="stroke"></rect><svg width="256px" height="256px" viewBox="0 0 24 24" fill="#ffffff" x="128" y="128" role="img" style="display:inline-block;vertical-align:middle" xmlns="http://www.w3.org/2000/svg"><g fill="#ffffff"><path fill="currentColor" d="M16 2H8C4.691 2 2 4.691 2 8v12a1 1 0 0 0 1 1h13c3.309 0 6-2.691 6-6V8c0-3.309-2.691-6-6-6zm4 13c0 2.206-1.794 4-4 4H4V8c0-2.206 1.794-4 4-4h8c2.206 0 4 1.794 4 4v7z"/></g></svg></svg>