<?xml version="1.0" encoding="UTF-8"?>
<svg width="16" height="16" viewBox="0 0 16 16" fill="none" xmlns="http://www.w3.org/2000/svg">
  <path d="M13.5 3.5C13.5 3.5 12 2.5 10 2.5L9.75 2.75C11.5 3.25 12.25 3.75 13 4.5C11.5 3.75 10 3.5 8 3.5C6 3.5 4.5 3.75 3 4.5C3.75 3.75 4.75 3.25 6.25 2.75L6 2.5C4 2.5 2.5 3.5 2.5 3.5C2.5 3.5 1 6.5 1 10.5C1 10.5 2 12.5 5 12.5C5 12.5 5.5 11.875 6 11.25C4.5 10.75 3.75 9.75 3.75 9.75C4.25 10.125 4.75 10.375 5.5 10.625C6.5 10.875 7.5 11.125 9 11.125C10.5 11.125 11.5 10.875 12.5 10.625C13.25 10.375 13.75 10.125 14.25 9.75C14.25 9.75 13.5 10.75 12 11.25C12.5 11.875 13 12.5 13 12.5C16 12.5 17 10.5 17 10.5C17 6.5 15.5 3.5 15.5 3.5H13.5Z" fill="white"/>
  <circle cx="6" cy="9" r="1" fill="#111111"/>
  <circle cx="10" cy="9" r="1" fill="#111111"/>
</svg> 